<?xml version="1.0" encoding="UTF-8" standalone="no"?>
<!-- Created with Inkscape (http://www.inkscape.org/) -->

<svg
   version="1.1"
   id="svg1"
   width="895.82666"
   height="1265.4399"
   viewBox="0 0 895.82666 1265.4399"
   sodipodi:docname="reshot-illustration-404-error-illustration-3D5KRFBEW4.eps"
   xmlns:inkscape="http://www.inkscape.org/namespaces/inkscape"
   xmlns:sodipodi="http://sodipodi.sourceforge.net/DTD/sodipodi-0.dtd"
   xmlns="http://www.w3.org/2000/svg"
   xmlns:svg="http://www.w3.org/2000/svg">
  <defs
     id="defs1" />
  <sodipodi:namedview
     id="namedview1"
     pagecolor="#ffffff"
     bordercolor="#000000"
     borderopacity="0.25"
     inkscape:showpageshadow="2"
     inkscape:pageopacity="0.0"
     inkscape:pagecheckerboard="0"
     inkscape:deskcolor="#d1d1d1">
    <inkscape:page
       x="0"
       y="0"
       inkscape:label="1"
       id="page1"
       width="895.82666"
       height="1265.4399"
       margin="0"
       bleed="0" />
  </sodipodi:namedview>
  <g
     id="g1"
     inkscape:groupmode="layer"
     inkscape:label="1">
    <g
       id="group-R5">
      <path
         id="path2"
         d="m 6306.51,2380.3 c -64.67,486.36 -326.3,948.16 -452.71,1425.99 -180.21,681.23 -13.78,1361.68 140.91,1981.38 156.96,628.77 380.52,1289.36 298.68,1980.47 C 6205.14,8513.32 5605.27,9027.56 4943.93,9298.1 2427.83,10327.4 961.91,6991.75 518.969,5026.71 352.973,4290.3 214.184,3440.58 546.484,2681.31 938.016,1786.7 1871.98,1217.43 2702.76,907.23 c 139.21,-51.968 279.15,-97.96 418.41,-138.339 887.91,-257.481 1937.05,-421.52 2646.84,239.359 352.98,328.66 610.81,828.29 538.5,1372.05"
         style="fill:#f8fafd;fill-opacity:1;fill-rule:nonzero;stroke:none"
         transform="matrix(0.13333333,0,0,-0.13333333,0,1265.44)" />
      <path
         id="path3"
         d="M 6718.67,7954.35 H -0.00390625 V 3996.62 c 0,-58.29 47.25780625,-105.54 105.54290625,-105.54 H 6613.12 c 58.3,0 105.55,47.25 105.55,105.54 v 3957.73"
         style="fill:#edf4fb;fill-opacity:1;fill-rule:nonzero;stroke:none"
         transform="matrix(0.13333333,0,0,-0.13333333,0,1265.44)" />
      <path
         id="path4"
         d="M 6613.13,8178.87 H 105.539 C 47.2539,8178.87 0.00390625,8131.62 0.00390625,8073.34 V 7954.35 H 6718.67 v 118.99 c 0,58.28 -47.25,105.53 -105.54,105.53"
         style="fill:#c3ceea;fill-opacity:1;fill-rule:nonzero;stroke:none"
         transform="matrix(0.13333333,0,0,-0.13333333,0,1265.44)" />
      <path
         id="path5"
         d="m 187.941,8057.32 c 0,-19.96 -16.183,-36.14 -36.152,-36.14 -19.965,0 -36.148,16.18 -36.148,36.14 0,19.97 16.183,36.16 36.148,36.16 19.969,0 36.152,-16.19 36.152,-36.16"
         style="fill:#b2bfdb;fill-opacity:1;fill-rule:nonzero;stroke:none"
         transform="matrix(0.13333333,0,0,-0.13333333,0,1265.44)" />
      <path
         id="path6"
         d="m 314.695,8057.32 c 0,-19.96 -16.187,-36.14 -36.152,-36.14 -19.965,0 -36.152,16.18 -36.152,36.14 0,19.97 16.187,36.16 36.152,36.16 19.965,0 36.152,-16.19 36.152,-36.16"
         style="fill:#b2bfdb;fill-opacity:1;fill-rule:nonzero;stroke:none"
         transform="matrix(0.13333333,0,0,-0.13333333,0,1265.44)" />
      <path
         id="path7"
         d="m 441.441,8057.32 c 0,-19.96 -16.179,-36.14 -36.144,-36.14 -19.969,0 -36.152,16.18 -36.152,36.14 0,19.97 16.183,36.16 36.152,36.16 19.965,0 36.144,-16.19 36.144,-36.16"
         style="fill:#b2bfdb;fill-opacity:1;fill-rule:nonzero;stroke:none"
         transform="matrix(0.13333333,0,0,-0.13333333,0,1265.44)" />
      <path
         id="path8"
         d="M 1782.48,5269.03 V 6929.1 L 580.578,5269.03 Z m 169.32,-703.88 h -72.02 c -53.74,0 -97.3,43.57 -97.3,97.3 V 5099.7 H 465.391 c -53.743,0 -97.301,43.56 -97.301,97.3 v 40.46 c 0,20.52 6.484,40.51 18.535,57.13 L 1750.02,7174.47 c 18.3,25.24 47.59,40.17 78.77,40.17 h 25.71 c 53.74,0 97.3,-43.56 97.3,-97.3 V 5269.03 h 325.39 V 5099.7 H 1951.8 v -534.55"
         style="fill:#b2bfdb;fill-opacity:1;fill-rule:nonzero;stroke:none"
         transform="matrix(0.13333333,0,0,-0.13333333,0,1265.44)" />
      <path
         id="path9"
         d="m 2561.82,5923.1 c 0,-590.98 149.4,-1188.62 783.55,-1188.62 630.83,0 783.56,607.6 783.56,1188.62 0,600.96 -146.09,1185.31 -783.56,1188.63 -644.11,-6.66 -783.55,-581.03 -783.55,-1188.63 m -172.66,0 c 0,700.57 205.85,1361.26 956.21,1361.26 743.72,0 956.2,-670.67 956.2,-1361.26 0,-697.23 -219.12,-1334.71 -956.2,-1357.95 -740.39,23.24 -956.21,650.77 -956.21,1357.95"
         style="fill:#b2bfdb;fill-opacity:1;fill-rule:nonzero;stroke:none"
         transform="matrix(0.13333333,0,0,-0.13333333,0,1265.44)" />
      <path
         id="path10"
         d="M 5827.94,5269.03 V 6929.1 L 4626.04,5269.03 Z m 55,-703.88 h -55 V 5099.7 H 4527.88 c -63.15,0 -114.33,51.19 -114.33,114.33 v 17.9 c 0,24.12 7.62,47.61 21.78,67.13 l 1355.05,1868.38 c 21.51,29.65 55.93,47.2 92.56,47.2 63.13,0 114.32,-51.18 114.32,-114.33 V 5269.03 h 325.38 V 5099.7 h -325.38 v -420.22 c 0,-63.15 -51.19,-114.33 -114.32,-114.33"
         style="fill:#b2bfdb;fill-opacity:1;fill-rule:nonzero;stroke:none"
         transform="matrix(0.13333333,0,0,-0.13333333,0,1265.44)" />
      <path
         id="path11"
         d="m 1854.61,4565.15 h 3973.33 v 144.082 H 1854.61 Z"
         style="fill:#b2bfdb;fill-opacity:1;fill-rule:nonzero;stroke:none"
         transform="matrix(0.13333333,0,0,-0.13333333,0,1265.44)" />
      <path
         id="path12"
         d="m 4500.41,5715.49 h -924.09 v 1078.6 h 924.09 v -1078.6"
         style="fill:#edf4fb;fill-opacity:1;fill-rule:nonzero;stroke:none"
         transform="matrix(0.13333333,0,0,-0.13333333,0,1265.44)" />
      <path
         id="path13"
         d="m 2654.3,6933.83 1206.81,-43.81 -13.26,-248.92 -1193.55,-196 v 488.73"
         style="fill:#f1aeae;fill-opacity:1;fill-rule:nonzero;stroke:none"
         transform="matrix(0.13333333,0,0,-0.13333333,0,1265.44)" />
      <path
         id="path14"
         d="m 3510.87,4701.86 c 0,0 448.69,-2178 364.56,-2505.16 C 3791.3,1869.53 2258,680.859 2258,680.859 L 1959.16,962.813 C 2538.71,1668.56 2601.81,1956 3230.44,2308.87 2728.96,3008.45 2155.86,3681.18 2211.55,4589.69 l 1299.32,112.17"
         style="fill:#1a213f;fill-opacity:1;fill-rule:nonzero;stroke:none"
         transform="matrix(0.13333333,0,0,-0.13333333,0,1265.44)" />
      <path
         id="path15"
         d="m 2211.55,4589.69 c -23.07,-694.93 110.48,-1496.05 233.68,-2290.16 -161.7,-685.79 -29.45,-1392.151 74.79,-2055.331 h 411.29 l 56.09,2045.981 c 272.7,723.85 478.62,1588.87 523.47,2411.69 -264.56,-285.2 -709.07,-305.83 -1299.32,-112.18"
         style="fill:#302f55;fill-opacity:1;fill-rule:nonzero;stroke:none"
         transform="matrix(0.13333333,0,0,-0.13333333,0,1265.44)" />
      <path
         id="path16"
         d="m 2931.31,244.199 c 0,0 383.82,-125.008 383.82,-244.1872812 H 2496.65 C 2490.15,107.77 2493.42,162.332 2520.02,244.199 h 411.29"
         style="fill:#1d2d51;fill-opacity:1;fill-rule:nonzero;stroke:none"
         transform="matrix(0.13333333,0,0,-0.13333333,0,1265.44)" />
      <path
         id="path17"
         d="m 2267.63,7013.08 238.36,553.84 378.58,-182.28 c 0,0 -112.16,-273.41 -112.16,-511.78 0,-238.36 -504.78,140.22 -504.78,140.22"
         style="fill:#ed9e9b;fill-opacity:1;fill-rule:nonzero;stroke:none"
         transform="matrix(0.13333333,0,0,-0.13333333,0,1265.44)" />
      <path
         id="path18"
         d="M 2295.67,7083.19 C 1982.25,6975.08 1949.81,6312 1996.55,6038.59 c 46.74,-273.43 336.51,-953.47 336.51,-1046.94 0,-93.48 -121.51,-401.96 -121.51,-401.96 103.95,-362.82 1119.56,-638.53 1425.56,-317.25 95.81,670.7 -457.19,3115.74 -1341.44,2810.75"
         style="fill:#566cbd;fill-opacity:1;fill-rule:nonzero;stroke:none"
         transform="matrix(0.13333333,0,0,-0.13333333,0,1265.44)" />
      <path
         id="path19"
         d="m 2251.92,4680.7 c 0,0 837.89,-300.32 1403.56,-131.35 l -8.94,-267.82 c 0,0 -444.93,-203.08 -1428.08,126.11 0,0 -67.44,177.65 33.46,273.06"
         style="fill:#fbc831;fill-opacity:1;fill-rule:nonzero;stroke:none"
         transform="matrix(0.13333333,0,0,-0.13333333,0,1265.44)" />
      <path
         id="path20"
         d="m 3171.59,3820.92 -608.52,84.23 80.47,581.35 608.51,-84.23 -80.46,-581.35"
         style="fill:#f8a40e;fill-opacity:1;fill-rule:nonzero;stroke:none"
         transform="matrix(0.13333333,0,0,-0.13333333,0,1265.44)" />
      <path
         id="path21"
         d="m 3172.85,3820.75 -608.51,84.22 60.63,438 608.51,-84.22 -60.63,-438"
         style="fill:#fbc831;fill-opacity:1;fill-rule:nonzero;stroke:none"
         transform="matrix(0.13333333,0,0,-0.13333333,0,1265.44)" />
      <path
         id="path22"
         d="m 3156.75,4124.45 -386.72,53.52 10.19,73.66 386.72,-53.53 -10.19,-73.65"
         style="fill:#f8a40e;fill-opacity:1;fill-rule:nonzero;stroke:none"
         transform="matrix(0.13333333,0,0,-0.13333333,0,1265.44)" />
      <path
         id="path23"
         d="m 2495.93,3206.66 98.88,-13.69 138.02,997.21 -98.88,13.69 -138.02,-997.21"
         style="fill:#dce5f6;fill-opacity:1;fill-rule:nonzero;stroke:none"
         transform="matrix(0.13333333,0,0,-0.13333333,0,1265.44)" />
      <path
         id="path24"
         d="m 2472.47,3209.91 140.78,-19.48 66.81,482.68 -140.78,19.48 -66.81,-482.68"
         style="fill:#566cbd;fill-opacity:1;fill-rule:nonzero;stroke:none"
         transform="matrix(0.13333333,0,0,-0.13333333,0,1265.44)" />
      <path
         id="path25"
         d="m 2498.89,4416.43 c 7.05,-23.57 27.26,-42.21 53.1,-45.78 l 17.6,-2.44 c 25.85,-3.58 50.35,8.88 63.53,29.64 l 146.58,-20.29 c 160.02,-16.17 224.3,-323.12 224.3,-323.12 l -60.34,8.35 c 0,0 -50.58,159.01 -109.85,168.93 -59.26,9.91 -80.91,-47.73 -80.91,-47.73 l -146.57,20.28 c -7.05,23.58 -27.25,42.21 -53.09,45.78 l -17.61,2.45 c -25.84,3.57 -50.35,-8.87 -63.53,-29.64 l -116.41,16.1 26.79,193.58 116.41,-16.11"
         style="fill:#b2bfdb;fill-opacity:1;fill-rule:nonzero;stroke:none"
         transform="matrix(0.13333333,0,0,-0.13333333,0,1265.44)" />
      <path
         id="path26"
         d="m 2574.54,4036.16 201.75,-27.92 10.35,74.78 -201.74,27.92 -10.36,-74.78"
         style="fill:#b2bfdb;fill-opacity:1;fill-rule:nonzero;stroke:none"
         transform="matrix(0.13333333,0,0,-0.13333333,0,1265.44)" />
      <path
         id="path27"
         d="m 2836.43,4674.36 c -72.41,0 -144.13,9.29 -208.66,32.72 -136.47,49.53 -183.7,224.25 -234.48,346.62 -119.21,287.24 -162.88,608.35 -185.86,916.71 -19.29,258.65 7.95,530.74 180.58,737.11 2.03,-1.63 4.42,-2.97 7.38,-3.68 121.57,-29.01 258.79,-124.47 353.71,-206.22 100.65,-86.67 177.85,-202.65 235.61,-321.29 127.66,-262.18 104.03,-560.89 146.11,-843.22 1.34,-9.01 9.47,-14.48 18.02,-14.48 0.69,0 1.37,0.03 2.06,0.11 126.2,13.04 243.45,70.68 366.29,97.19 40.86,-176.32 72.68,-349.09 94.63,-508.33 -171.62,-80.36 -343.86,-159.86 -528.83,-202.83 -76.2,-17.69 -161.85,-30.41 -246.56,-30.41"
         style="fill:#4e64b8;fill-opacity:1;fill-rule:nonzero;stroke:none"
         transform="matrix(0.13333333,0,0,-0.13333333,0,1265.44)" />
      <path
         id="path28"
         d="m 2602.45,7347.75 c 0,0 66.07,-225.83 329.24,-242.58 l 102.06,156.55 99.4,28.12 -33.21,327.57 c 0,0 -78.82,250.06 -338.27,288.61 -259.45,38.55 -448.06,-384.33 -159.22,-558.27"
         style="fill:#f1aeae;fill-opacity:1;fill-rule:nonzero;stroke:none"
         transform="matrix(0.13333333,0,0,-0.13333333,0,1265.44)" />
      <path
         id="path29"
         d="m 2361.99,7503.33 c 3.19,21.18 4.42,56.28 10.01,82.1 -37.7,23.76 -37.34,41.37 -53.27,86.68 -37.51,106.69 18.57,223.58 125.26,261.09 38.55,13.56 78.4,14.74 115.38,5.88 6.54,269.04 569.77,312.46 674.6,-46.71 39.56,-17.14 0.51,-59.24 15.93,-103.13 29.38,-83.55 57.16,-165.79 -26.4,-195.17 -27.1,-9.53 -54.98,-11.1 -81.36,-6.33 -37.72,2.52 -80.88,12.24 -124.83,29.58 -1.51,0.59 -2.93,1.25 -4.42,1.86 -65.4,21.86 -128.51,68.37 -125.1,66.31 0,0 90.57,-110.83 -148.7,-267.81 -239.27,-156.99 -398.83,-58.14 -377.1,85.65"
         style="fill:#1d2d51;fill-opacity:1;fill-rule:nonzero;stroke:none"
         transform="matrix(0.13333333,0,0,-0.13333333,0,1265.44)" />
      <path
         id="path30"
         d="m 2633.45,7286.42 c 0,0 -136.83,225.11 -28.1,278.52 108.72,53.4 139.89,-190.64 139.89,-190.64 l -111.79,-87.88"
         style="fill:#f1aeae;fill-opacity:1;fill-rule:nonzero;stroke:none"
         transform="matrix(0.13333333,0,0,-0.13333333,0,1265.44)" />
      <path
         id="path31"
         d="m 4084.9,5813.67 v 0 c -9.39,0 -17.08,7.69 -17.08,17.09 v 262.41 c 0,9.4 7.69,17.08 17.08,17.08 9.4,0 17.09,-7.68 17.09,-17.08 v -262.41 c 0,-9.4 -7.69,-17.09 -17.09,-17.09"
         style="fill:#b2bfdb;fill-opacity:1;fill-rule:nonzero;stroke:none"
         transform="matrix(0.13333333,0,0,-0.13333333,0,1265.44)" />
      <path
         id="path32"
         d="m 4278.98,5813.67 v 0 c -9.4,0 -17.09,7.69 -17.09,17.09 v 262.41 c 0,9.4 7.69,17.08 17.09,17.08 9.4,0 17.08,-7.68 17.08,-17.08 v -262.41 c 0,-9.4 -7.68,-17.09 -17.08,-17.09"
         style="fill:#b2bfdb;fill-opacity:1;fill-rule:nonzero;stroke:none"
         transform="matrix(0.13333333,0,0,-0.13333333,0,1265.44)" />
      <path
         id="path33"
         d="m 3989.35,5896.13 v -123.82 c 0,-83.78 68.56,-152.33 152.34,-152.33 h 85.48 c 83.78,0 152.32,68.55 152.32,152.33 v 123.82 c 0,19.26 -15.61,34.86 -34.85,34.86 h -320.43 c -19.25,0 -34.86,-15.6 -34.86,-34.86"
         style="fill:#ffffff;fill-opacity:1;fill-rule:nonzero;stroke:none"
         transform="matrix(0.13333333,0,0,-0.13333333,0,1265.44)" />
      <path
         id="path34"
         d="m 2209.83,6413.56 c 113.67,745.23 658.01,336.41 771.35,81.27 119.11,-268.11 3.3,-1115 3.3,-1115 l 848.04,176.01 56.81,-345.74 c 0,0 -952.55,-558.12 -1221.89,-372.4 -269.35,185.71 -496.08,1323.64 -457.61,1575.86"
         style="fill:#f1aeae;fill-opacity:1;fill-rule:nonzero;stroke:none"
         transform="matrix(0.13333333,0,0,-0.13333333,0,1265.44)" />
      <path
         id="path35"
         d="m 3000.44,5513.86 c 26.97,249.72 70.38,779.21 -19.26,980.97 -113.34,255.14 -657.68,663.96 -771.35,-81.27 -22.52,-147.59 45.81,-598.42 160.32,-984.31 210.36,26.14 420.32,55.43 630.29,84.61"
         style="fill:#566cbd;fill-opacity:1;fill-rule:nonzero;stroke:none"
         transform="matrix(0.13333333,0,0,-0.13333333,0,1265.44)" />
      <path
         id="path36"
         d="m 3832.52,5555.84 c 0,0 265.06,203.29 450.27,109.63 185.23,-93.64 221.59,-254.97 104.05,-310.18 -117.55,-55.2 -278.86,-91.57 -333.27,-88.12 -54.39,3.44 -164.24,-57.07 -164.24,-57.07 l -56.81,345.74"
         style="fill:#f1aeae;fill-opacity:1;fill-rule:nonzero;stroke:none"
         transform="matrix(0.13333333,0,0,-0.13333333,0,1265.44)" />
      <path
         id="path37"
         d="m 4098.91,5678.73 c 0,0 312.83,75.96 355.27,-38.46 21.96,-59.2 -173.97,-15.59 -173.97,-15.59 l -181.3,54.05"
         style="fill:#f1aeae;fill-opacity:1;fill-rule:nonzero;stroke:none"
         transform="matrix(0.13333333,0,0,-0.13333333,0,1265.44)" />
      <path
         id="path38"
         d="m 3952.92,6296.22 -26.31,120.99 c -17.79,81.87 34.63,163.42 116.49,181.22 l 83.54,18.16 c 81.86,17.8 163.41,-34.63 181.21,-116.5 l 26.31,-120.99 c 4.09,-18.81 -7.85,-37.38 -26.66,-41.47 l -313.12,-68.07 c -18.81,-4.09 -37.37,7.84 -41.46,26.66"
         style="fill:#ffffff;fill-opacity:1;fill-rule:nonzero;stroke:none"
         transform="matrix(0.13333333,0,0,-0.13333333,0,1265.44)" />
      <path
         id="path39"
         d="m 4276.72,6624 c 2.27,8.53 3.74,19.52 4.55,31.98 10.71,105.62 -17.21,227.39 -56.45,242.4 -2.79,1.07 -6.02,2.01 -9.46,2.89 -0.94,0.24 -1.91,0.47 -2.89,0.69 -2.89,0.67 -5.95,1.28 -9.2,1.83 l -2.59,0.46 c -4.17,0.66 -8.58,1.24 -13.27,1.74 l -2.53,0.24 c -4.03,0.4 -8.21,0.75 -12.56,1.04 -1.28,0.09 -2.58,0.17 -3.88,0.25 -5.13,0.31 -10.41,0.57 -15.89,0.75 l -0.18,0.01 c -5.8,0.19 -11.81,0.29 -17.93,0.35 -1.16,0.01 -2.35,0.01 -3.53,0.02 -5.25,0.03 -10.58,0.01 -16.01,-0.04 -0.99,-0.01 -1.96,-0.01 -2.96,-0.02 -110.04,-1.38 -250.83,-18.57 -250.83,-18.57 l -13.26,-248.92 c 0,0 144.2,-137.1 313.44,-144.47 0.98,-0.04 1.85,0.09 2.82,0.07 158.51,-21.86 277.66,16.3 112.61,127.3"
         style="fill:#f1aeae;fill-opacity:1;fill-rule:nonzero;stroke:none"
         transform="matrix(0.13333333,0,0,-0.13333333,0,1265.44)" />
      <path
         id="path40"
         d="m 3164.2,7820.61 c -6.53,-28.61 -13.61,-57.11 -21.08,-85.55 l -767.53,239.85 c 88.86,258.19 354.43,406.43 597.71,330.41 106.84,-33.39 192.56,-104.79 248.87,-196.63 -25.7,-94.74 -36.14,-192.4 -57.97,-288.08"
         style="fill:#f8a40e;fill-opacity:1;fill-rule:nonzero;stroke:none"
         transform="matrix(0.13333333,0,0,-0.13333333,0,1265.44)" />
      <path
         id="path41"
         d="m 2308.05,7876.32 c 95.46,277.37 380.76,436.63 642.11,354.96 261.35,-81.66 402.42,-417.75 322.97,-700.13 l -965.08,345.17"
         style="fill:#fbc831;fill-opacity:1;fill-rule:nonzero;stroke:none"
         transform="matrix(0.13333333,0,0,-0.13333333,0,1265.44)" />
      <path
         id="path42"
         d="m 3316.75,7493.15 -1026.06,320.63 c -17.5,5.46 -27,25.39 -21.1,44.27 5.9,18.87 25.05,29.85 42.56,24.38 0,0 1053.05,-346.02 1047.15,-364.9 -5.9,-18.88 -25.05,-29.86 -42.55,-24.38"
         style="fill:#f8a40e;fill-opacity:1;fill-rule:nonzero;stroke:none"
         transform="matrix(0.13333333,0,0,-0.13333333,0,1265.44)" />
      <path
         id="path43"
         d="m 2258,680.859 c 0,0 136.01,-248.64 78.89,-436.66 L 1778.98,760.73 1959.16,962.813 2258,680.859"
         style="fill:#1d2d51;fill-opacity:1;fill-rule:nonzero;stroke:none"
         transform="matrix(0.13333333,0,0,-0.13333333,0,1265.44)" />
      <path
         id="path44"
         d="m 4187.98,0.0117188 h 1364.81 c 106.68,0 186.78,90.6679812 180.39,191.7972812 H 4007.58 C 4001.19,90.6797 4081.29,0.0117188 4187.98,0.0117188"
         style="fill:#ffffff;fill-opacity:1;fill-rule:nonzero;stroke:none"
         transform="matrix(0.13333333,0,0,-0.13333333,0,1265.44)" />
      <path
         id="path45"
         d="M 4696.64,2594.92 4551.5,2092.15 h 637.76 l -145.13,502.77 c -25.16,87.12 -99.45,130.68 -173.75,130.68 -74.3,0 -148.59,-43.56 -173.74,-130.68"
         style="fill:#b2bfdb;fill-opacity:1;fill-rule:nonzero;stroke:none"
         transform="matrix(0.13333333,0,0,-0.13333333,0,1265.44)" />
      <path
         id="path46"
         d="m 4368.64,1458.71 h 1003.48 l -182.86,633.44 h -637.75 l -182.87,-633.44"
         style="fill:#dce5f6;fill-opacity:1;fill-rule:nonzero;stroke:none"
         transform="matrix(0.13333333,0,0,-0.13333333,0,1265.44)" />
      <path
         id="path47"
         d="m 4185.78,825.25 h 1369.2 l -182.86,633.46 H 4368.64 L 4185.78,825.25"
         style="fill:#b2bfdb;fill-opacity:1;fill-rule:nonzero;stroke:none"
         transform="matrix(0.13333333,0,0,-0.13333333,0,1265.44)" />
      <path
         id="path48"
         d="M 5554.98,825.25 H 4185.78 L 4014.24,231 c -3.79,-13.129 -5.84,-26.238 -6.66,-39.191 h 1725.6 c -0.82,12.953 -2.86,26.062 -6.65,39.191 l -171.55,594.25"
         style="fill:#dce5f6;fill-opacity:1;fill-rule:nonzero;stroke:none"
         transform="matrix(0.13333333,0,0,-0.13333333,0,1265.44)" />
      <path
         id="path49"
         d="M 5951.96,0.0117188 H 3788.81 c -52.96,0 -95.9,42.9374812 -95.9,95.8866812 0,52.9726 42.94,95.9106 95.9,95.9106 h 2163.15 c 52.96,0 95.9,-42.938 95.9,-95.9106 0,-52.9492 -42.94,-95.8866812 -95.9,-95.8866812"
         style="fill:#b2bfdb;fill-opacity:1;fill-rule:nonzero;stroke:none"
         transform="matrix(0.13333333,0,0,-0.13333333,0,1265.44)" />
    </g>
  </g>
</svg>
