<?xml version="1.0" encoding="UTF-8" standalone="no"?>
<svg
   xmlns:dc="http://purl.org/dc/elements/1.1/"
   xmlns:cc="http://creativecommons.org/ns#"
   xmlns:rdf="http://www.w3.org/1999/02/22-rdf-syntax-ns#"
   xmlns:svg="http://www.w3.org/2000/svg"
   xmlns="http://www.w3.org/2000/svg"
   viewBox="0 0 816 816"
   height="816"
   width="816"
   xml:space="preserve"
   id="svg2"
   version="1.1"><metadata
     id="metadata8"><rdf:RDF><cc:Work
         rdf:about=""><dc:format>image/svg+xml</dc:format><dc:type
           rdf:resource="http://purl.org/dc/dcmitype/StillImage" /></cc:Work></rdf:RDF></metadata><defs
     id="defs6" /><g
     transform="matrix(1.3333333,0,0,-1.3333333,0,816)"
     id="g10"><g
       transform="scale(0.1)"
       id="g12"><path
         id="path14"
         style="fill:#d4dc7c;fill-opacity:1;fill-rule:nonzero;stroke:none"
         d="M 0,0 H 6120 V 6120 H 0 Z" /><path
         id="path16"
         style="fill:#ffffff;fill-opacity:1;fill-rule:nonzero;stroke:none"
         d="m 1833.44,1233.9 c -27.95,6.79 -52.25,25.49 -65.7,52.2 -18.92,37.59 -12.28,83 16.6,113.61 l 66.07,69.99 -309.43,75.29 C 1412.74,1576.2 1333.8,1705.91 1365,1834.15 l 735.83,3024.02 c 31.21,128.24 160.92,207.19 289.16,175.98 l 437.09,-106.36 c 49.04,37.13 113.58,52.01 175.51,36.94 l 222.88,-54.23 c 43.14,144.64 193.1,231.92 341.4,195.84 148.3,-36.09 241.39,-182.51 213.26,-330.8 L 4003,4721.31 c 61.93,-15.07 112.41,-57.95 138.91,-113.45 L 4579.02,4501.5 C 4707.26,4470.29 4786.2,4340.58 4755,4212.34 L 4427.24,2865.35 c 22.89,5.72 47.23,5.65 71.75,-0.31 58.97,-14.36 115.07,-63.36 150.08,-131.1 l 0.62,-1.19 c 11.14,-21.92 19.34,-43.9 24.75,-66.11 1.39,-5.75 2.54,-11.23 3.51,-16.65 3.13,-17.6 4.37,-34.83 3.7,-51.29 -0.57,-12.74 -2.18,-24.76 -4.8,-36.12 -6.69,-28.92 -19.6,-53.6 -38.39,-73.47 -11.47,-12.07 -24.59,-21.82 -39.16,-29.09 l -72.56,-36.39 c -6.37,-5.57 -13.45,-10.38 -21.14,-14.24 L 4289.99,2301.3 4019.17,1188.32 c -31.2,-128.24 -160.92,-207.191 -289.16,-175.98 l -1353.92,329.45 -114.4,-57.37 c -10.35,-5.17 -21.52,-8.53 -33.01,-9.89 l -359.81,-42.76 c -12.09,-1.45 -24.06,-0.65 -35.43,2.13" /><path
         id="path18"
         style="fill:#75b7e5;fill-opacity:1;fill-rule:nonzero;stroke:none"
         d="m 3753.65,1109.5 -2189.03,532.66 c -74.78,18.19 -120.65,93.56 -102.45,168.35 L 2198,4834.53 c 18.19,74.78 93.57,120.65 168.35,102.45 l 2189.03,-532.65 c 74.78,-18.19 120.66,-93.57 102.45,-168.35 L 3922,1211.96 c -18.19,-74.78 -93.56,-120.65 -168.35,-102.46" /><path
         id="path20"
         style="fill:#f5eddf;fill-opacity:1;fill-rule:nonzero;stroke:none"
         d="m 3798.04,1218.22 -2222.89,540.89 746.82,3069.16 2222.87,-540.89 -746.8,-3069.16" /><path
         id="path22"
         style="fill:#ebe4d8;fill-opacity:1;fill-rule:nonzero;stroke:none"
         d="m 4544.82,4287.4 -746.8,-3069.15 -2222.84,540.88 23.52,96.68 c 1195.72,-238.46 2377.59,507.05 2668.6,1703.05 l 182.89,751.57 94.63,-23.03" /><path
         id="path24"
         style="fill:#252323;fill-opacity:1;fill-rule:nonzero;stroke:none"
         d="m 2361.41,4123.31 274.88,-66.89 66.89,274.88 -274.88,66.89 z m 287.35,-121.38 -323.46,78.7 c -13.42,3.27 -21.65,16.79 -18.39,30.21 l 78.72,323.47 c 3.26,13.41 16.78,21.64 30.2,18.38 l 323.46,-78.72 c 13.42,-3.26 21.65,-16.78 18.39,-30.2 l -78.72,-323.46 c -3.26,-13.42 -16.78,-21.65 -30.2,-18.38" /><path
         id="path26"
         style="fill:#252323;fill-opacity:1;fill-rule:nonzero;stroke:none"
         d="m 2235.11,3604.26 274.89,-66.88 66.88,274.88 -274.88,66.88 z m 287.36,-121.38 -323.47,78.71 c -13.42,3.27 -21.65,16.78 -18.38,30.2 l 78.71,323.46 c 3.26,13.42 16.78,21.65 30.2,18.39 l 323.46,-78.71 c 13.42,-3.27 21.65,-16.79 18.38,-30.2 l -78.7,-323.47 c -3.27,-13.41 -16.79,-21.64 -30.2,-18.38" /><path
         id="path28"
         style="fill:#252323;fill-opacity:1;fill-rule:nonzero;stroke:none"
         d="m 2114.01,3106.58 274.89,-66.89 66.88,274.88 -274.89,66.89 z m 287.35,-121.38 -323.46,78.71 c -13.42,3.26 -21.65,16.78 -18.38,30.2 l 78.7,323.46 c 3.27,13.42 16.79,21.64 30.21,18.38 l 323.46,-78.71 c 13.42,-3.26 21.65,-16.78 18.38,-30.2 l -78.7,-323.47 c -3.27,-13.41 -16.79,-21.64 -30.21,-18.37" /><path
         id="path30"
         style="fill:#252323;fill-opacity:1;fill-rule:nonzero;stroke:none"
         d="m 1987.71,2587.52 274.88,-66.89 66.89,274.9 -274.88,66.88 z m 287.35,-121.38 -323.46,78.71 c -13.42,3.27 -21.65,16.79 -18.38,30.21 l 78.7,323.47 c 3.27,13.41 16.79,21.64 30.21,18.37 l 323.47,-78.71 c 13.41,-3.26 21.64,-16.77 18.37,-30.19 l -78.71,-323.48 c -3.26,-13.42 -16.78,-21.64 -30.2,-18.38" /><path
         id="path32"
         style="fill:#252323;fill-opacity:1;fill-rule:nonzero;stroke:none"
         d="m 1866.61,2089.83 274.88,-66.88 66.89,274.89 -274.88,66.89 z m 287.35,-121.37 -323.46,78.71 c -13.42,3.26 -21.65,16.79 -18.39,30.2 l 78.72,323.47 c 3.26,13.42 16.78,21.65 30.2,18.38 l 323.46,-78.71 c 13.42,-3.26 21.65,-16.78 18.39,-30.2 l -78.71,-323.47 c -3.27,-13.42 -16.79,-21.64 -30.21,-18.38" /><path
         id="path34"
         style="fill:#343434;fill-opacity:1;fill-rule:nonzero;stroke:none"
         d="m 3395.92,4853.8 c 13.89,57.13 71.4,92.13 128.53,78.23 57.13,-13.91 92.23,-71.43 78.32,-128.57 -8.24,-33.91 -31.87,-59.96 -61.63,-72.69 -20.46,-8.81 -43.8,-11.26 -67.02,-5.61 -23.22,5.65 -42.83,18.55 -56.86,35.76 -20.68,24.99 -29.59,58.97 -21.34,92.88 z m 583.44,-229.66 -339.79,82.68 c 18.86,21.66 33,48.06 40.26,77.89 24.26,99.69 -36.91,200.21 -136.61,224.46 -99.68,24.26 -200.19,-36.91 -224.45,-136.6 -7.27,-29.83 -6.84,-59.78 -0.04,-87.68 l -339.78,82.68 c -58.2,14.16 -116.8,-21.5 -130.96,-79.7 l -42.08,-172.95 1211.06,-294.69 42.08,172.96 c 14.17,58.2 -21.49,116.79 -79.69,130.95" /><path
         id="path36"
         style="fill:#252323;fill-opacity:1;fill-rule:nonzero;stroke:none"
         d="M 4141.69,3981.27 2876.4,4289.16 c -13.42,3.26 -21.65,16.78 -18.38,30.2 3.26,13.41 16.78,21.64 30.2,18.38 l 1265.3,-307.88 c 13.41,-3.27 21.64,-16.79 18.37,-30.21 -3.27,-13.41 -16.78,-21.64 -30.2,-18.38" /><path
         id="path38"
         style="fill:#252323;fill-opacity:1;fill-rule:nonzero;stroke:none"
         d="M 3854.09,3879.95 2951.4,4099.6 c -13.42,3.26 -21.64,16.78 -18.38,30.2 3.27,13.42 16.78,21.65 30.2,18.38 l 902.7,-219.65 c 13.41,-3.26 21.64,-16.78 18.38,-30.2 -3.27,-13.42 -16.79,-21.65 -30.21,-18.38" /><path
         id="path40"
         style="fill:#252323;fill-opacity:1;fill-rule:nonzero;stroke:none"
         d="m 4183.34,3628.52 -1385.65,337.17 c -13.42,3.27 -21.65,16.79 -18.38,30.2 3.26,13.42 16.78,21.64 30.2,18.38 L 4195.16,3677.1 c 13.41,-3.26 21.65,-16.78 18.38,-30.2 -3.27,-13.41 -16.78,-21.64 -30.2,-18.38" /><path
         id="path42"
         style="fill:#252323;fill-opacity:1;fill-rule:nonzero;stroke:none"
         d="M 4015.39,3462.23 2750.1,3770.11 c -13.42,3.26 -21.65,16.78 -18.38,30.2 3.26,13.42 16.78,21.64 30.2,18.38 l 1265.3,-307.88 c 13.41,-3.27 21.64,-16.79 18.38,-30.2 -3.28,-13.42 -16.79,-21.65 -30.21,-18.38" /><path
         id="path44"
         style="fill:#252323;fill-opacity:1;fill-rule:nonzero;stroke:none"
         d="m 3727.79,3360.9 -902.69,219.65 c -13.42,3.26 -21.64,16.78 -18.38,30.2 3.27,13.42 16.79,21.65 30.2,18.38 l 902.69,-219.65 c 13.42,-3.26 21.65,-16.78 18.39,-30.2 -3.27,-13.42 -16.79,-21.64 -30.21,-18.38" /><path
         id="path46"
         style="fill:#252323;fill-opacity:1;fill-rule:nonzero;stroke:none"
         d="m 3101.69,3341.94 -430.3,104.71 c -13.42,3.26 -21.64,16.78 -18.38,30.2 3.26,13.41 16.78,21.64 30.2,18.38 l 430.31,-104.71 c 13.41,-3.26 21.64,-16.78 18.37,-30.2 -3.26,-13.42 -16.78,-21.64 -30.2,-18.38" /><path
         id="path48"
         style="fill:#252323;fill-opacity:1;fill-rule:nonzero;stroke:none"
         d="m 3738.64,2979.78 -899.69,218.92 c -13.42,3.27 -21.65,16.8 -18.38,30.21 3.26,13.41 16.78,21.64 30.2,18.38 l 899.7,-218.92 c 13.42,-3.27 21.64,-16.79 18.38,-30.21 -3.26,-13.4 -16.79,-21.65 -30.21,-18.38" /><path
         id="path50"
         style="fill:#252323;fill-opacity:1;fill-rule:nonzero;stroke:none"
         d="m 3601.49,2841.85 -1017.05,247.48 c -13.41,3.26 -21.64,16.78 -18.38,30.2 3.27,13.41 16.79,21.64 30.2,18.38 l 1017.05,-247.48 c 13.42,-3.26 21.65,-16.78 18.39,-30.2 -3.27,-13.41 -16.79,-21.65 -30.21,-18.38" /><path
         id="path52"
         style="fill:#252323;fill-opacity:1;fill-rule:nonzero;stroke:none"
         d="m 3930.74,2590.42 -1385.65,337.17 c -13.42,3.27 -21.64,16.78 -18.38,30.2 3.27,13.42 16.79,21.64 30.2,18.38 L 3942.56,2639 c 13.42,-3.26 21.65,-16.78 18.38,-30.19 -3.26,-13.42 -16.78,-21.65 -30.2,-18.39" /><path
         id="path54"
         style="fill:#252323;fill-opacity:1;fill-rule:nonzero;stroke:none"
         d="m 3762.79,2424.13 -1150.93,280.05 c -13.42,3.27 -21.65,16.79 -18.38,30.2 3.26,13.42 16.78,21.65 30.2,18.38 l 1150.93,-280.05 c 13.42,-3.27 21.65,-16.78 18.39,-30.2 -3.27,-13.42 -16.79,-21.65 -30.21,-18.38" /><path
         id="path56"
         style="fill:#252323;fill-opacity:1;fill-rule:nonzero;stroke:none"
         d="m 3475.2,2322.8 -902.7,219.65 c -13.41,3.27 -21.64,16.79 -18.37,30.21 3.26,13.41 16.78,21.65 30.2,18.38 l 902.68,-219.65 c 13.42,-3.27 21.65,-16.79 18.39,-30.21 -3.27,-13.41 -16.79,-21.64 -30.2,-18.38" /><path
         id="path58"
         style="fill:#252323;fill-opacity:1;fill-rule:nonzero;stroke:none"
         d="m 3804.44,2071.38 -1385.65,337.16 c -13.41,3.27 -21.64,16.79 -18.38,30.21 3.27,13.42 16.79,21.64 30.21,18.38 l 1385.64,-337.17 c 13.42,-3.26 21.65,-16.79 18.38,-30.2 -3.26,-13.42 -16.78,-21.64 -30.2,-18.38" /><path
         id="path60"
         style="fill:#252323;fill-opacity:1;fill-rule:nonzero;stroke:none"
         d="M 3636.49,1905.08 2371.2,2212.97 c -13.42,3.26 -21.65,16.78 -18.38,30.19 3.26,13.42 16.79,21.65 30.2,18.38 l 1265.3,-307.88 c 13.41,-3.26 21.64,-16.77 18.38,-30.19 -3.27,-13.42 -16.79,-21.65 -30.21,-18.39" /><path
         id="path62"
         style="fill:#252323;fill-opacity:1;fill-rule:nonzero;stroke:none"
         d="m 3348.9,1803.75 -902.69,219.65 c -13.42,3.27 -21.65,16.79 -18.38,30.2 3.26,13.42 16.78,21.64 30.2,18.38 l 902.68,-219.65 c 13.42,-3.26 21.65,-16.78 18.38,-30.2 -3.26,-13.42 -16.77,-21.64 -30.19,-18.38" /><path
         id="path64"
         style="fill:#252323;fill-opacity:1;fill-rule:nonzero;stroke:none"
         d="M 3678.14,1552.33 2292.5,1889.5 c -13.42,3.26 -21.65,16.79 -18.38,30.21 3.26,13.42 16.78,21.64 30.2,18.38 l 1385.64,-337.17 c 13.42,-3.26 21.65,-16.79 18.38,-30.21 -3.26,-13.41 -16.78,-21.64 -30.2,-18.38" /><path
         id="path66"
         style="fill:#e9b7bd;fill-opacity:1;fill-rule:nonzero;stroke:none"
         d="m 2103.85,1592.52 -246.78,-261.46 359.81,42.76 -113.03,218.7" /><path
         id="path68"
         style="fill:#ede407;fill-opacity:1;fill-rule:nonzero;stroke:none"
         d="m 2121.73,1498.92 61.24,-59.51 -79.12,153.11 17.88,-93.6" /><path
         id="path70"
         style="fill:#f18e12;fill-opacity:1;fill-rule:nonzero;stroke:none"
         d="m 2103.88,1592.46 33.86,-65.54 -19.49,-9.77 3.48,-18.23 61.24,-59.51 33.91,-65.59 2243.89,1124.97 -113,218.64 -2243.89,-1124.97" /><path
         id="path72"
         style="fill:#ede407;fill-opacity:1;fill-rule:nonzero;stroke:none"
         d="m 2182.97,1439.41 5.12,-68.89 28.79,3.3 2243.89,1124.97 -33.9,65.59 -2243.9,-1124.97" /><path
         id="path74"
         style="fill:#ede407;fill-opacity:1;fill-rule:nonzero;stroke:none"
         d="m 4347.74,2717.49 33.91,-65.6 -2243.91,-1124.97 -33.89,65.6 2243.89,1124.97" /><path
         id="path76"
         style="fill:#d5d8d4;fill-opacity:1;fill-rule:nonzero;stroke:none"
         d="m 4347.77,2717.43 113,-218.64 -124.29,-62.32 -112.99,218.65 124.28,62.31" /><path
         id="path78"
         style="fill:#a1a1a0;fill-opacity:1;fill-rule:nonzero;stroke:none"
         d="m 4253.26,2670.12 -29.83,-14.96 113.02,-218.7 29.84,14.96 -113.03,218.7" /><path
         id="path80"
         style="fill:#d57c95;fill-opacity:1;fill-rule:nonzero;stroke:none"
         d="m 4560.23,2688.02 0.71,-1.36 c 14.87,-29.25 21.78,-59.29 20.79,-83.9 -1.1,-25.09 -10.2,-44.81 -27.16,-53.31 l -95.28,-47.78 -111.52,215.76 95.3,47.79 c 33.9,17 86.33,-17.54 117.16,-77.2" /><path
         id="path82"
         style="fill:#535456;fill-opacity:1;fill-rule:nonzero;stroke:none"
         d="m 1919.83,1397.57 c 0,0 23.72,-18.85 28.75,-55.64 l -91.51,-10.87 62.76,66.51" /><path
         id="path84"
         style="fill:#b99295;fill-opacity:1;fill-rule:nonzero;stroke:none"
         d="m 1948.58,1341.97 c -1.65,12 -5.28,22.1 -9.43,30.25 l 206.45,103.5 37.37,-36.31 5.12,-68.89 28.79,3.3 -28.79,-3.3 -239.51,-28.55" /><path
         id="path86"
         style="fill:#bf711c;fill-opacity:1;fill-rule:nonzero;stroke:none"
         d="m 2182.97,1439.41 v 0 l -37.37,36.31 2134.35,1070.07 22.6,-43.73 -2119.58,-1062.65" /><path
         id="path88"
         style="fill:#cecdcb;fill-opacity:1;fill-rule:nonzero;stroke:none"
         d="m 4460.77,2498.79 -30.34,58.72 28.86,-55.84 95.28,47.78 c 16.96,8.5 26.06,28.22 27.16,53.31 0.06,1.54 0.09,3.1 0.09,4.68 0,-1.58 -0.03,-3.14 -0.09,-4.68 -1.1,-25.09 -10.2,-44.81 -27.16,-53.31 l -95.28,-47.78 1.48,-2.88 m -33.9,65.59 -22.6,43.74 v 0 l 22.6,-43.74 v 0" /><path
         id="path90"
         style="fill:#bbb61a;fill-opacity:1;fill-rule:nonzero;stroke:none"
         d="m 2188.09,1370.52 -5.12,68.89 2119.58,1062.65 33.9,-65.6 -594.99,-298.3 -69.11,-34.64 -209.09,-104.83 -69.1,-34.64 -160.94,-80.69 -69.11,-34.65 -160.93,-80.68 -69.1,-34.64 -409.46,-205.28 -0.03,-0.02 -160.5,-80.47 -147.21,-73.8 -28.79,-3.3 m 2272.68,1128.27 -33.9,65.59 v 0 l 3.56,-6.87 30.34,-58.72" /><path
         id="path92"
         style="fill:#a9aba8;fill-opacity:1;fill-rule:nonzero;stroke:none"
         d="m 4366.29,2451.42 -56.5,109.33 94.48,47.37 22.6,-43.74 33.9,-65.59 -94.48,-47.37" /><path
         id="path94"
         style="fill:#7e8081;fill-opacity:1;fill-rule:nonzero;stroke:none"
         d="m 4336.45,2436.46 v 0 l -33.9,65.6 -22.6,43.73 29.84,14.96 56.5,-109.33 -29.84,-14.96" /><path
         id="path96"
         style="fill:#aa6476;fill-opacity:1;fill-rule:nonzero;stroke:none"
         d="m 4459.29,2501.67 -28.86,55.84 -3.56,6.87 -22.6,43.74 156.67,78.54 c 13.94,-27.42 20.89,-55.54 20.88,-79.22 0,-1.58 -0.03,-3.14 -0.09,-4.68 -1.1,-25.09 -10.2,-44.81 -27.16,-53.31 l -95.28,-47.78" /><path
         id="path98"
         style="fill:#434244;fill-opacity:1;fill-rule:nonzero;stroke:none"
         d="m 1857.07,1331.06 82.08,41.16 c 4.15,-8.15 7.78,-18.25 9.43,-30.25 l -91.51,-10.91" /><path
         id="path100"
         style="fill:#62be4d;fill-opacity:1;fill-rule:nonzero;stroke:none"
         d="m 2337.41,4375.83 71.55,-17.42 86.48,-142.09 315.09,191.76 39.86,-65.49 -358.73,-218.32 -154.25,251.56" /><path
         id="path102"
         style="fill:#62be4d;fill-opacity:1;fill-rule:nonzero;stroke:none"
         d="m 2095.19,3380.36 71.55,-17.41 86.48,-142.1 315.09,191.76 39.85,-65.49 -358.73,-218.32 -154.24,251.56" /><path
         id="path104"
         style="fill:#62be4d;fill-opacity:1;fill-rule:nonzero;stroke:none"
         d="m 1960.03,2824.94 71.56,-17.41 86.48,-142.1 315.08,191.76 39.86,-65.49 -358.73,-218.32 -154.25,251.56" /><path
         id="path106"
         style="fill:#c82630;fill-opacity:1;fill-rule:nonzero;stroke:none"
         d="m 2245.79,3953.06 79.43,-19.33 98.75,-162.26 166.96,101.61 79.43,-19.33 -229.06,-135.24 146.39,-240.55 -80.15,19.51 -107.97,177.41 -178.71,-108.77 -84.9,20.66 253.51,145.95 -143.68,220.34" /><path
         id="path108"
         style="fill:#c82630;fill-opacity:1;fill-rule:nonzero;stroke:none"
         d="m 1874.69,2427.96 79.44,-19.34 98.74,-162.24 166.96,101.6 79.43,-19.33 -229.06,-135.24 146.39,-240.55 -80.15,19.5 -107.97,177.42 -178.71,-108.76 -84.9,20.65 253.51,145.96 -143.68,220.33" /></g></g></svg>