<?xml version="1.0" encoding="utf-8"?>
<!-- Generator: Adobe Illustrator 21.0.0, SVG Export Plug-In . SVG Version: 6.00 Build 0)  -->
<svg version="1.1" id="Layer_1" xmlns="http://www.w3.org/2000/svg" xmlns:xlink="http://www.w3.org/1999/xlink" x="0px" y="0px"
	 viewBox="0 0 61 61" style="enable-background:new 0 0 61 61;" xml:space="preserve">
<style type="text/css">
	.st0{fill:#455A64;stroke:#424242;stroke-linecap:round;stroke-linejoin:round;stroke-miterlimit:10;}
	.st1{fill:none;stroke:#546E7A;stroke-linecap:round;stroke-linejoin:round;stroke-miterlimit:10;}
	.st2{fill:#546E7A;stroke:#424242;stroke-linecap:round;stroke-linejoin:round;stroke-miterlimit:10;}
	.st3{fill:none;stroke:#78909C;stroke-linecap:round;stroke-linejoin:round;stroke-miterlimit:10;}
	.st4{fill:none;stroke:#455A64;stroke-linecap:round;stroke-linejoin:round;stroke-miterlimit:10;}
	.st5{fill:#FFA726;stroke:#424242;stroke-linecap:round;stroke-linejoin:round;stroke-miterlimit:10;}
	.st6{fill:none;stroke:#FB8C00;stroke-linecap:round;stroke-linejoin:round;stroke-miterlimit:10;}
	.st7{fill:none;stroke:#FFCC80;stroke-linecap:round;stroke-linejoin:round;stroke-miterlimit:10;}
	.st8{fill:#CFD8DC;stroke:#424242;stroke-linecap:round;stroke-linejoin:round;stroke-miterlimit:10;}
	.st9{fill:none;stroke:#ECEFF1;stroke-linecap:round;stroke-linejoin:round;stroke-miterlimit:10;}
	.st10{fill:none;stroke:#B0BEC5;stroke-linecap:round;stroke-linejoin:round;stroke-miterlimit:10;}
	.st11{fill:none;stroke:#424242;stroke-linecap:round;stroke-linejoin:round;stroke-miterlimit:10;}
	.st12{fill:#EC407A;stroke:#424242;stroke-linecap:round;stroke-linejoin:round;stroke-miterlimit:10;}
	.st13{fill:none;stroke:#F48FB1;stroke-linecap:round;stroke-linejoin:round;stroke-miterlimit:10;}
	.st14{fill:none;stroke:#D81B60;stroke-linecap:round;stroke-linejoin:round;stroke-miterlimit:10;}
	.st15{fill:#ECEFF1;stroke:#424242;stroke-linecap:round;stroke-linejoin:round;stroke-miterlimit:10;}
	.st16{fill:#26C6DA;stroke:#424242;stroke-linecap:round;stroke-linejoin:round;stroke-miterlimit:10;}
	.st17{fill:none;stroke:#00ACC1;stroke-linecap:round;stroke-linejoin:round;stroke-miterlimit:10;}
	.st18{fill:none;stroke:#80DEEA;stroke-linecap:round;stroke-linejoin:round;stroke-miterlimit:10;}
	.st19{fill:#B0BEC5;stroke:#424242;stroke-linecap:round;stroke-linejoin:round;stroke-miterlimit:10;}
	.st20{fill:none;stroke:#CFD8DC;stroke-linecap:round;stroke-linejoin:round;stroke-miterlimit:10;}
	.st21{fill:#E0E0E0;stroke:#424242;stroke-linecap:round;stroke-linejoin:round;stroke-miterlimit:10;}
	.st22{fill:#F57F17;stroke:#424242;stroke-linecap:round;stroke-linejoin:round;stroke-miterlimit:10;}
	.st23{fill:none;stroke:#F57F17;stroke-linecap:round;stroke-linejoin:round;stroke-miterlimit:10;}
	.st24{fill:#FB8C00;stroke:#424242;stroke-miterlimit:10;}
	.st25{fill:none;stroke:#0097A7;stroke-linecap:round;stroke-linejoin:round;stroke-miterlimit:10;}
	.st26{fill:#26C6DA;stroke:#0097A7;stroke-linecap:round;stroke-linejoin:round;stroke-miterlimit:10;}
	.st27{fill:none;stroke:#90A4AE;stroke-linecap:round;stroke-linejoin:round;stroke-miterlimit:10;}
	.st28{fill:#CFD8DC;}
	.st29{fill:none;stroke:#424242;stroke-linecap:round;stroke-linejoin:round;}
	.st30{fill:none;stroke:#424242;stroke-linecap:round;stroke-linejoin:round;stroke-dasharray:4.0714,4.0714;}
	.st31{fill:#90A4AE;stroke:#424242;stroke-linecap:round;stroke-linejoin:round;stroke-miterlimit:10;}
	.st32{fill:none;stroke:#78909C;stroke-linecap:round;stroke-miterlimit:10;}
	.st33{fill:none;stroke:#455A64;stroke-linecap:round;stroke-miterlimit:10;}
	.st34{fill:#78909C;stroke:#424242;stroke-linecap:round;stroke-linejoin:round;stroke-miterlimit:10;}
	.st35{fill:none;stroke:#546E7A;stroke-linecap:round;stroke-miterlimit:10;}
	.st36{fill:none;stroke:#FFA726;stroke-linecap:round;stroke-linejoin:round;stroke-miterlimit:10;}
	.st37{fill:#4DD0E1;stroke:#424242;stroke-linecap:round;stroke-linejoin:round;stroke-miterlimit:10;}
	.st38{fill:#00ACC1;stroke:#424242;stroke-linecap:round;stroke-linejoin:round;stroke-miterlimit:10;}
	.st39{fill:#D81B60;stroke:#424242;stroke-linecap:round;stroke-linejoin:round;stroke-miterlimit:10;}
	.st40{fill:none;stroke:#C2185B;stroke-linecap:round;stroke-linejoin:round;stroke-miterlimit:10;}
	.st41{fill:#FB8C00;stroke:#424242;stroke-linecap:round;stroke-linejoin:round;stroke-miterlimit:10;}
	.st42{fill:none;stroke:#37474F;stroke-linecap:round;stroke-linejoin:round;stroke-miterlimit:10;}
	.st43{fill:#B0BEC5;stroke:#424242;stroke-miterlimit:10;}
	.st44{fill:#37474F;stroke:#424242;stroke-linecap:round;stroke-linejoin:round;stroke-miterlimit:10;}
	.st45{fill:#F5F5F5;stroke:#424242;stroke-linecap:round;stroke-linejoin:round;stroke-miterlimit:10;}
	.st46{fill:none;stroke:#FAFAFA;stroke-linecap:round;stroke-linejoin:round;stroke-miterlimit:10;}
	.st47{fill:#F06292;stroke:#424242;stroke-linecap:round;stroke-linejoin:round;stroke-miterlimit:10;}
	.st48{fill:#F48FB1;stroke:#424242;stroke-linecap:round;stroke-linejoin:round;stroke-miterlimit:10;}
</style>
<g id="Blu-Ray">
	<path class="st0" d="M29.2,2.5c-15.5,0-28,12.5-28,28c0,15.5,12.5,28,28,28c15.5,0,28-12.5,28-28C57.2,15,44.7,2.5,29.2,2.5z
		 M29.2,40.5c-5.5,0-10-4.5-10-10c0-5.5,4.5-10,10-10c5.5,0,10,4.5,10,10C39.2,36,34.8,40.5,29.2,40.5z"/>
	<path class="st2" d="M31.8,2.5c-15.5,0-28,12.5-28,28c0,15.5,12.5,28,28,28c15.5,0,28-12.5,28-28C59.8,15,47.2,2.5,31.8,2.5z
		 M31.8,40.5c-5.5,0-10-4.5-10-10c0-5.5,4.5-10,10-10c5.5,0,10,4.5,10,10C41.8,36,37.3,40.5,31.8,40.5z"/>
	<path class="st16" d="M31.8,6.5c-13.3,0-24,10.7-24,24c0,13.3,10.7,24,24,24c13.3,0,24-10.7,24-24C55.8,17.2,45,6.5,31.8,6.5z
		 M31.8,37c-3.6,0-6.5-2.9-6.5-6.5c0-3.6,2.9-6.5,6.5-6.5c3.6,0,6.5,2.9,6.5,6.5C38.2,34.1,35.3,37,31.8,37z"/>
	<path class="st18" d="M31.8,8.5c-12.2,0-22,9.8-22,22"/>
	<path class="st17" d="M31.8,52.5c12.2,0,22-9.8,22-22"/>
	<path class="st8" d="M42.7,9.1l-8,15.6c1.2,0.6,2.2,1.6,2.8,2.8l15.6-8C50.8,15.1,47.2,11.4,42.7,9.1z"/>
	<path class="st8" d="M20.8,51.9l8-15.6c-1.2-0.6-2.2-1.6-2.8-2.8l-15.6,8C12.7,45.9,16.3,49.6,20.8,51.9z"/>
	<path class="st2" d="M31.8,20.5c-5.5,0-10,4.5-10,10c0,5.5,4.5,10,10,10c5.5,0,10-4.5,10-10C41.8,25,37.3,20.5,31.8,20.5z M31.8,37
		c-3.6,0-6.5-2.9-6.5-6.5c0-3.6,2.9-6.5,6.5-6.5c3.6,0,6.5,2.9,6.5,6.5C38.2,34.1,35.3,37,31.8,37z"/>
</g>
</svg>
