<?xml version="1.0" encoding="UTF-8"?>
<!DOCTYPE svg PUBLIC "-//W3C//DTD SVG 1.1//EN" "http://www.w3.org/Graphics/SVG/1.1/DTD/svg11.dtd">
<!-- Creator: CorelDRAW -->
<svg xmlns="http://www.w3.org/2000/svg" xml:space="preserve" width="6.82666in" height="6.82666in" style="shape-rendering:geometricPrecision; text-rendering:geometricPrecision; image-rendering:optimizeQuality; fill-rule:evenodd; clip-rule:evenodd"
viewBox="0 0 6.82666 6.82666"
 xmlns:xlink="http://www.w3.org/1999/xlink">
 <defs>
  <style type="text/css">
   <![CDATA[
    .fil2 {fill:none}
    .fil1 {fill:#311B92}
    .fil0 {fill:#512DA8}
    .fil3 {fill:#00A1A2;fill-rule:nonzero}
    .fil4 {fill:#00C9CA;fill-rule:nonzero}
   ]]>
  </style>
   <clipPath id="id0">
    <path d="M3.41333 0c1.88513,0 3.41333,1.5282 3.41333,3.41333 0,1.88513 -1.5282,3.41333 -3.41333,3.41333 -1.88513,0 -3.41333,-1.5282 -3.41333,-3.41333 0,-1.88513 1.5282,-3.41333 3.41333,-3.41333z"/>
   </clipPath>
 </defs>
 <g id="Layer_x0020_1">
  <metadata id="CorelCorpID_0Corel-Layer"/>
  <path class="fil0" d="M3.41333 0c1.88513,0 3.41333,1.5282 3.41333,3.41333 0,1.88513 -1.5282,3.41333 -3.41333,3.41333 -1.88513,0 -3.41333,-1.5282 -3.41333,-3.41333 0,-1.88513 1.5282,-3.41333 3.41333,-3.41333z"/>
  <g style="clip-path:url(#id0)">
   <g id="_332352640">
    <g>
     <polygon id="_3314336161" class="fil1" points="5.21071,1.65701 8.99698,5.44328 9.00154,5.44895 9.00598,5.45472 9.01027,5.46061 9.01443,5.46659 9.01844,5.47269 9.02232,5.47888 9.02604,5.48517 9.02962,5.49155 9.03305,5.49803 9.03632,5.5046 9.03944,5.51126 9.0424,5.518 9.0452,5.52483 9.04783,5.53174 9.0503,5.53873 9.05261,5.5458 9.05474,5.55293 9.0567,5.56014 9.05848,5.56742 9.06009,5.57477 9.06152,5.58218 9.06276,5.58965 9.06382,5.59718 9.06469,5.60477 9.06538,5.61241 9.06587,5.6201 9.06617,5.62785 9.06626,5.63564 5.28,1.84937 5.2799,1.84157 5.2796,1.83383 5.27911,1.82614 5.27843,1.8185 5.27756,1.81091 5.2765,1.80337 5.27525,1.79591 5.27382,1.7885 5.27222,1.78115 5.27043,1.77387 5.26847,1.76666 5.26634,1.75952 5.26404,1.75246 5.26157,1.74547 5.25893,1.73856 5.25613,1.73173 5.25317,1.72499 5.25006,1.71833 5.24678,1.71176 5.24335,1.70528 5.23978,1.69889 5.23605,1.69261 5.23218,1.68641 5.22816,1.68032 5.224,1.67433 5.21971,1.66845 5.21528,1.66268 "/>
     <polygon id="_331433976" class="fil1" points="5.28,1.84937 9.06626,5.63564 9.06626,8.76357 5.28,4.9773 "/>
     <polygon id="_331433448" class="fil1" points="5.28,4.9773 9.06626,8.76357 9.06617,8.77136 9.06587,8.7791 9.06538,8.7868 9.06469,8.79444 9.06382,8.80203 9.06276,8.80956 9.06152,8.81703 9.06009,8.82444 9.05848,8.83178 9.0567,8.83906 9.05474,8.84627 9.05261,8.85341 9.0503,8.86048 9.04783,8.86746 9.0452,8.87437 9.0424,8.8812 9.03944,8.88794 9.03632,8.8946 9.03305,8.90117 9.02962,8.90765 9.02604,8.91404 9.02232,8.92033 9.01844,8.92652 9.01443,8.93261 9.01027,8.9386 9.00598,8.94448 9.00154,8.95026 8.99698,8.95592 8.99228,8.96147 8.98746,8.96691 8.9825,8.97223 8.97743,8.97743 5.19116,5.19116 5.19624,5.18596 5.20119,5.18064 5.20602,5.1752 5.21071,5.16965 5.21528,5.16398 5.21971,5.15821 5.224,5.15233 5.22816,5.14634 5.23218,5.14025 5.23605,5.13406 5.23978,5.12777 5.24335,5.12138 5.24678,5.1149 5.25006,5.10833 5.25317,5.10167 5.25613,5.09493 5.25893,5.0881 5.26157,5.08119 5.26404,5.0742 5.26634,5.06714 5.26847,5.06 5.27043,5.05279 5.27222,5.04551 5.27382,5.03817 5.27525,5.03076 5.2765,5.02329 5.27756,5.01576 5.27843,5.00817 5.27911,5.00052 5.2796,4.99283 5.2799,4.98509 "/>
     <polygon id="_331433640" class="fil1" points="5.19116,5.19116 8.97743,8.97743 8.97222,8.98251 8.96691,8.98746 8.96147,8.99229 8.95592,8.99698 8.95025,9.00155 8.94448,9.00598 8.93859,9.01028 8.93261,9.01443 8.92652,9.01845 8.92032,9.02232 8.91404,9.02605 8.90765,9.02963 8.90117,9.03305 8.8946,9.03633 8.88794,9.03944 8.8812,9.0424 8.87437,9.0452 8.86746,9.04784 8.86047,9.05031 8.85341,9.05261 8.84627,9.05474 8.83906,9.0567 8.83178,9.05849 8.82443,9.06009 8.81702,9.06152 8.80956,9.06277 8.80202,9.06383 8.79443,9.0647 8.78679,9.06538 8.7791,9.06587 8.77135,9.06617 8.76356,9.06627 4.9773,5.28 4.98509,5.2799 4.99283,5.2796 5.00052,5.27911 5.00817,5.27843 5.01576,5.27756 5.02329,5.2765 5.03076,5.27525 5.03817,5.27382 5.04551,5.27222 5.05279,5.27043 5.06,5.26847 5.06714,5.26634 5.0742,5.26404 5.08119,5.26157 5.0881,5.25893 5.09493,5.25613 5.10167,5.25317 5.10833,5.25006 5.1149,5.24678 5.12138,5.24335 5.12777,5.23978 5.13406,5.23605 5.14025,5.23218 5.14634,5.22816 5.15233,5.224 5.15821,5.21971 5.16398,5.21528 5.16965,5.21071 5.1752,5.20602 5.18064,5.20119 5.18596,5.19624 "/>
     <polygon id="_331433688" class="fil1" points="4.9773,5.28 8.76356,9.06627 5.63563,9.06627 1.84937,5.28 "/>
     <polygon id="_331433544" class="fil1" points="1.84937,5.28 5.63563,9.06627 5.62784,9.06617 5.6201,9.06587 5.61241,9.06538 5.60476,9.0647 5.59717,9.06383 5.58964,9.06277 5.58217,9.06152 5.57476,9.06009 5.56742,9.05849 5.56014,9.0567 5.55293,9.05474 5.54579,9.05261 5.53872,9.05031 5.53174,9.04784 5.52483,9.0452 5.518,9.0424 5.51126,9.03944 5.5046,9.03633 5.49803,9.03305 5.49155,9.02963 5.48516,9.02605 5.47887,9.02232 5.47268,9.01845 5.46659,9.01443 5.4606,9.01028 5.45472,9.00598 5.44894,9.00155 5.44328,8.99698 1.65701,5.21071 1.66268,5.21528 1.66845,5.21971 1.67433,5.224 1.68032,5.22816 1.68641,5.23218 1.69261,5.23605 1.69889,5.23978 1.70528,5.24335 1.71176,5.24678 1.71833,5.25006 1.72499,5.25317 1.73173,5.25613 1.73856,5.25893 1.74547,5.26157 1.75246,5.26404 1.75952,5.26634 1.76666,5.26847 1.77387,5.27043 1.78115,5.27222 1.7885,5.27382 1.79591,5.27525 1.80337,5.2765 1.81091,5.27756 1.8185,5.27843 1.82614,5.27911 1.83383,5.2796 1.84157,5.2799 "/>
    </g>
    <path id="_332352496" class="fil1" d="M1.84937 1.54667l3.12793 0c0.0833504,0 0.159051,0.0340276 0.213862,0.0888386 0.054811,0.054811 0.0888386,0.130512 0.0888386,0.213862l0 3.12793c0,0.0833504 -0.0340276,0.159051 -0.0888386,0.213862 -0.054811,0.054811 -0.130512,0.0888386 -0.213862,0.0888386l-3.12793 0c-0.0833504,0 -0.159051,-0.0340276 -0.213862,-0.0888386 -0.054811,-0.054811 -0.0888386,-0.130512 -0.0888386,-0.213862l0 -3.12793c0,-0.0833504 0.0340276,-0.159051 0.0888386,-0.213862 0.054811,-0.054811 0.130512,-0.0888386 0.213862,-0.0888386z"/>
   </g>
  </g>
  <path class="fil2" d="M3.41333 0c1.88513,0 3.41333,1.5282 3.41333,3.41333 0,1.88513 -1.5282,3.41333 -3.41333,3.41333 -1.88513,0 -3.41333,-1.5282 -3.41333,-3.41333 0,-1.88513 1.5282,-3.41333 3.41333,-3.41333z"/>
  <path class="fil3" d="M1.84937 1.54667l3.12793 0c0.0833504,0 0.159051,0.0340276 0.213862,0.0888386 0.054811,0.054811 0.0888386,0.130512 0.0888386,0.213862l0 3.12793c0,0.0833504 -0.0340276,0.159051 -0.0888386,0.213862 -0.054811,0.054811 -0.130512,0.0888386 -0.213862,0.0888386l-3.12793 0c-0.0833504,0 -0.159051,-0.0340276 -0.213862,-0.0888386 -0.054811,-0.054811 -0.0888386,-0.130512 -0.0888386,-0.213862l0 -3.12793c0,-0.0833504 0.0340276,-0.159051 0.0888386,-0.213862 0.054811,-0.054811 0.130512,-0.0888386 0.213862,-0.0888386z"/>
  <path class="fil4" d="M2.07295 1.81353l2.68076 0c0.0714331,0 0.136311,0.0291614 0.183287,0.0761378 0.0469764,0.0469764 0.0761378,0.111854 0.0761378,0.183287l0 2.68076c0,0.0714331 -0.0291614,0.136311 -0.0761378,0.183287 -0.0469764,0.0469764 -0.111854,0.0761378 -0.183287,0.0761378l-2.68076 0c-0.0714331,0 -0.136311,-0.0291614 -0.183287,-0.0761378 -0.0469764,-0.0469764 -0.0761378,-0.111854 -0.0761378,-0.183287l0 -2.68076c0,-0.0714331 0.0291614,-0.136311 0.0761378,-0.183287 0.0469764,-0.0469764 0.111854,-0.0761378 0.183287,-0.0761378z"/>
 </g>
</svg>
