<svg xmlns="http://www.w3.org/2000/svg" viewBox="0 0 32 32"><defs><style>.cls-1{fill:#231f20;}</style></defs><g id="exam_result" data-name="exam result"><path class="cls-1" d="M25.09,4.82,21.94,2.46A2.25,2.25,0,0,0,20.58,2H8.27A2.27,2.27,0,0,0,6,4.27V22a1,1,0,0,0,2,0V4.27A.27.27,0,0,1,8.27,4H19V8a1,1,0,0,0,1,1h2a1,1,0,0,0,0-2H21V4.25l2.89,2.17a.27.27,0,0,1,.11.22V27.73a.27.27,0,0,1-.27.27H8.27A.27.27,0,0,1,8,27.73V26a1,1,0,0,0-2,0v1.73A2.27,2.27,0,0,0,8.27,30H23.73A2.27,2.27,0,0,0,26,27.73V6.64A2.29,2.29,0,0,0,25.09,4.82Z"/><path class="cls-1" d="M21,15H11a1,1,0,0,0,0,2H21a1,1,0,0,0,0-2Z"/><path class="cls-1" d="M21,19H11a1,1,0,0,0,0,2H21a1,1,0,0,0,0-2Z"/><path class="cls-1" d="M21,23H11a1,1,0,0,0,0,2H21a1,1,0,0,0,0-2Z"/><path class="cls-1" d="M12.86,5.49a1,1,0,0,0-1.81.19l-2,6A1,1,0,0,0,9.68,13,1.25,1.25,0,0,0,10,13a1,1,0,0,0,.95-.68L11.39,11h2.44l.31.51a1,1,0,1,0,1.72-1ZM12.05,9l.21-.62.37.62Z"/></g></svg>