<svg xmlns="http://www.w3.org/2000/svg" viewBox="0 0 512 512"><title>Artboard 110</title><g id="Asian_Young_Woman" data-name="Asian Young Woman"><rect x="106.66667" y="170.66667" width="298.66667" height="256" style="fill:#062d3c"/><rect x="320" y="298.66667" width="21.33333" height="42.66667" style="fill:#224552"/><rect x="341.33333" y="256" width="21.33333" height="106.66667" style="fill:#012334"/><rect x="362.66667" y="213.33333" width="21.33333" height="149.33333" style="fill:#224552"/><rect x="106.66667" y="170.66667" width="149.33333" height="213.33333" style="fill:#062d3c"/><rect x="149.33333" y="256" width="21.33333" height="64" style="fill:#224552"/><rect x="149.33333" y="341.33333" width="21.33333" height="64" style="fill:#224552"/><rect x="341.33333" y="192" width="42.66667" height="64" rx="21.33331" ry="21.33331" style="fill:#cb7956"/><rect x="128" y="192" width="42.66667" height="64" rx="21.33331" ry="21.33331" style="fill:#e29971"/><path d="M192,277.33333v64a21.33334,21.33334,0,0,1-21.33333,21.33334h-64A85.33333,85.33333,0,0,0,21.33333,448v42.66667H490.66667V448a85.33333,85.33333,0,0,0-85.33334-85.33333h-64A21.33334,21.33334,0,0,1,320,341.33333v-64Z" style="fill:#e29971"/><path d="M341.33333,362.66667A21.33356,21.33356,0,0,1,320,341.33333v-64H234.66667v128a21.33333,21.33333,0,1,0,42.66666,0h85.33334V362.66667Z" style="fill:#cb7956"/><path d="M405.33333,362.66667H106.66667A85.33255,85.33255,0,0,0,21.33333,448v42.66667H490.66667V448A85.33255,85.33255,0,0,0,405.33333,362.66667Z" style="fill:#088156"/><circle cx="362.66667" cy="469.33333" r="21.33333" style="fill:#57a98c"/><circle cx="234.66667" cy="426.66667" r="21.33333" style="fill:#57a98c"/><path d="M426.66667,490.66667a21.33333,21.33333,0,1,1,42.66666,0Z" style="fill:#57a98c"/><path d="M64,490.66667H42.66667V448a64.07,64.07,0,0,1,64-64v21.33333A42.70887,42.70887,0,0,0,64,448Z" style="fill:#57a98c"/><rect x="170.66667" y="362.66667" width="170.66667" height="42.66667" style="fill:#00593b"/><rect x="256" y="362.66667" width="85.33333" height="42.66667" style="fill:#004c33"/><rect x="170.66667" y="362.66667" width="64" height="21.33333" style="fill:#086b47"/><rect x="149.33333" y="42.66667" width="213.33333" height="298.66656" rx="106.66656" ry="106.66656" style="fill:#edbda4"/><path d="M320,64.48307v84.85026H277.33333v21.33334H320v42.66659a21.33333,21.33333,0,0,1,21.33333,21.33333v.00008A21.33333,21.33333,0,0,1,320,256H256v64h21.33333v19.18359a106.69065,106.69065,0,0,0,85.33334-104.51692V149.33333C362.66667,114.54948,345.76562,83.95443,320,64.48307Z" style="fill:#e29971"/><polygon points="234.667 234.667 234.667 256 277.333 256 277.333 192 320 192 320 170.667 256 170.667 256 234.667 234.667 234.667" style="fill:#cb7956"/><rect x="298.66667" y="192" width="21.33333" height="21.33333" style="fill:#4c2c1a"/><rect x="192" y="192" width="21.33333" height="21.33333" style="fill:#4c2c1a"/><rect x="234.66667" y="277.33333" width="42.66667" height="21.33333" style="fill:#ce464d"/><path d="M405.33333,405.33333v-64H362.66667v21.33334H341.3333l0-21.33334H320v85.33334A21.33333,21.33333,0,0,1,298.66667,448H277.33333a42.69585,42.69585,0,0,0,49.83257,42.08251c20.9781-3.41275,35.5008-23.11239,35.50078-44.36627V426.66667a42.66667,42.66667,0,0,0,85.33333,0H426.66667A21.33334,21.33334,0,0,1,405.33333,405.33333Z" style="fill:#062d3c"/><rect x="362.66667" y="277.33333" width="21.33333" height="149.33333" style="fill:#224552"/><path d="M106.66656,176.92928C106.666,95.16151,169.67369,23.85654,251.40464,21.40273A149.33525,149.33525,0,0,1,405.33333,170.66667V192l-42.66666,21.33333V170.66667H298.6666a63.99993,63.99993,0,0,1-63.99993-63.99994v-.00006H213.33333a64,64,0,0,1-64,64v42.66666L106.66667,192Z" style="fill:#062d3c"/><rect x="213.33333" y="85.33333" width="21.33333" height="21.33333" style="fill:#cb7956"/><path d="M384,149.33333H320a64.07,64.07,0,0,1-64-64V64h21.33333V85.33333A42.70887,42.70887,0,0,0,320,128h64Z" style="fill:#224552"/><path d="M106.66667,176.92708V192l42.66666,21.33333V170.66667a63.99983,63.99983,0,0,0,64-64V27.96224C150.94531,47.457,106.66667,108.4375,106.66667,176.92708Z" style="fill:#224552"/><circle cx="266.66667" cy="394.66667" r="10.66667" style="fill:#088156"/><rect x="106.66667" y="170.66667" width="21.33333" height="192" style="fill:#224552"/><rect x="106.66667" y="192" width="21.33333" height="64" style="fill:#4c6a74"/><circle cx="149.33333" cy="469.33333" r="21.33333" style="fill:#57a98c"/><circle cx="448" cy="405.33333" r="21.33333" style="fill:#57a98c"/><circle cx="64" cy="469.33333" r="21.33333" style="fill:#57a98c"/><rect x="42.66667" y="448" width="21.33333" height="42.66667" style="fill:#80bea8"/><path d="M149.33333,362.66667a21.33333,21.33333,0,1,1-42.66666,0Z" style="fill:#57a98c"/><rect x="320" y="320" width="21.33333" height="85.33333" style="fill:#224552"/><path d="M405.33333,469.33333a42.70885,42.70885,0,0,1-42.66666-42.66666H384a21.33334,21.33334,0,0,0,42.66667,0H448A42.70886,42.70886,0,0,1,405.33333,469.33333Z" style="fill:#224552"/><path d="M298.66667,469.33333V448A21.36113,21.36113,0,0,0,320,426.66667v-32h21.33333v32A42.70885,42.70885,0,0,1,298.66667,469.33333Z" style="fill:#224552"/><path d="M149.33333,170.66667H128A127.63827,127.63827,0,0,1,197.78125,56.6875l9.72917,18.97917A106.39917,106.39917,0,0,0,149.33333,170.66667Z" style="fill:#4c6a74"/></g></svg>